<svg xmlns="http://www.w3.org/2000/svg" width="1em" height="1em" fill="none" viewBox="0 0 19 30" aria-hidden="true" class="h-[15px] w-auto shrink-0 sm:h-[18px]"><path fill="#fff" d="M1.195 1.206c.27-.007.549-.004.82-.002 1.562.012 3.13-.018 4.692.003l.001 20.476c0 .583.016 6.63-.015 6.696-.625.021-1.373.002-2.01.002L1.19 28.38V2.204c0-.32-.01-.684.004-.998M12.23 1.208c.268-.008.547-.005.815-.002 1.561.016 3.132-.024 4.692.003l.001 20.379v6.246c0 .105.008.474-.01.548l-5.507-.001V1.827c0-.122-.008-.533.009-.619"></path></svg>